<?xml version="1.0" standalone="no"?>
<!DOCTYPE svg PUBLIC "-//W3C//DTD SVG 20010904//EN"
 "http://www.w3.org/TR/2001/REC-SVG-20010904/DTD/svg10.dtd">
<svg version="1.0" xmlns="http://www.w3.org/2000/svg"
 width="389.000000pt" height="387.000000pt" viewBox="0 0 389.000000 387.000000"
 preserveAspectRatio="xMidYMid meet">
<metadata>
Created by potrace 1.16, written by Peter Selinger 2001-2019
</metadata>
<g transform="translate(0.000000,387.000000) scale(0.100000,-0.100000)"
fill="#000000" stroke="none">
<path d="M1750 3859 c-652 -66 -1242 -481 -1526 -1074 -220 -461 -252 -954
-93 -1441 132 -408 412 -769 781 -1008 102 -66 301 -164 408 -200 508 -172
1050 -131 1519 115 747 391 1150 1220 996 2052 -181 979 -1088 1656 -2085
1556z m-301 -741 c50 -24 161 -124 191 -173 l21 -33 42 23 c73 41 206 58 407
52 183 -6 264 -19 324 -55 l35 -21 21 34 c51 82 187 185 266 201 28 5 31 3 42
-33 33 -111 34 -232 2 -330 -11 -31 -9 -36 24 -75 73 -85 102 -178 116 -378
14 -197 -2 -316 -60 -431 -87 -171 -250 -284 -485 -334 l-81 -17 23 -47 c44
-89 53 -165 53 -468 l0 -283 -322 0 -323 0 0 157 c0 152 -1 158 -20 155 -11
-2 -67 -4 -125 -4 -82 -1 -118 4 -162 20 -111 40 -194 115 -249 224 -50 100
-137 226 -177 255 -78 57 -76 73 6 73 102 -1 172 -47 252 -165 27 -40 66 -87
87 -104 78 -65 226 -96 328 -69 54 14 52 12 75 118 7 30 22 74 35 96 l22 41
-81 18 c-229 49 -393 159 -478 321 -64 123 -81 232 -67 437 13 202 43 301 115
385 l35 41 -16 56 c-27 92 -18 259 17 328 11 22 38 18 107 -15z"/>
</g>
</svg>
