<?xml version="1.0" standalone="no"?>
<!DOCTYPE svg PUBLIC "-//W3C//DTD SVG 20010904//EN"
 "http://www.w3.org/TR/2001/REC-SVG-20010904/DTD/svg10.dtd">
<svg version="1.0" xmlns="http://www.w3.org/2000/svg"
 width="518.000000pt" height="453.000000pt" viewBox="0 0 518.000000 453.000000"
 preserveAspectRatio="xMidYMid meet">

<g transform="translate(0.000000,453.000000) scale(0.100000,-0.100000)"
fill="#000000" stroke="none">
<path d="M1737 4468 c-13 -13 -179 -293 -367 -623 -365 -638 -636 -1110 -754
-1315 -254 -437 -560 -976 -569 -1000 -9 -23 -8 -36 6 -65 16 -33 710 -1262
780 -1380 16 -27 36 -55 45 -62 24 -19 3406 -14 3438 4 12 7 193 314 421 715
453 794 423 741 423 765 0 11 -40 89 -88 174 -125 218 -564 981 -1002 1744
-205 358 -421 733 -479 835 -58 102 -115 195 -128 207 l-22 23 -840 0 -840 0
-24 -22z m1761 -420 c82 -145 190 -333 239 -418 49 -85 187 -325 306 -532 119
-208 315 -548 434 -755 119 -208 263 -459 320 -558 l103 -180 -688 -7 c-531
-6 -689 -4 -698 5 -6 7 -129 219 -274 472 -145 253 -302 528 -350 610 -48 83
-178 310 -290 505 -112 195 -297 517 -410 715 -114 198 -212 370 -219 383
l-12 22 694 0 694 0 151 -262z m-1552 -103 c76 -132 167 -292 203 -355 82
-143 229 -400 242 -420 28 -46 89 -161 89 -168 0 -5 -32 -64 -72 -133 -110
-191 -332 -579 -360 -629 -14 -25 -67 -117 -118 -205 -108 -187 -420 -729
-457 -795 -15 -25 -87 -151 -161 -280 -75 -129 -156 -271 -180 -315 -25 -44
-60 -104 -78 -133 -19 -29 -34 -55 -34 -58 0 -2 -20 -38 -44 -79 -48 -84 -44
-84 -96 10 -45 81 -157 279 -408 721 -116 203 -214 378 -217 386 -6 15 46 110
293 538 30 52 150 262 267 465 117 204 290 505 385 670 95 165 181 315 191
333 11 18 38 66 61 105 22 40 52 92 66 117 21 36 194 336 261 452 9 15 19 24
22 20 4 -4 69 -115 145 -247z m869 -1502 c116 -202 272 -475 348 -607 l137
-241 -697 -3 c-383 -1 -698 0 -701 2 -5 6 689 1216 697 1216 3 0 101 -165 216
-367z m2067 -1065 c-27 -45 -244 -423 -261 -456 -8 -15 -93 -164 -189 -332
-97 -168 -185 -321 -196 -341 l-20 -36 -165 -7 c-221 -8 -2941 -8 -2941 1 0
19 226 400 235 395 6 -3 7 -2 3 3 -4 4 8 35 26 69 61 111 406 710 412 715 3 3
594 8 1312 11 719 3 1419 6 1555 8 l249 2 -20 -32z"/>
</g>
</svg>
